<svg width="256" height="256" viewBox="0 0 256 256" fill="none" xmlns="http://www.w3.org/2000/svg">
<path fill-rule="evenodd" clip-rule="evenodd" d="M128 60C99.2 60 81.2 74.4 74 103.2C84.8 88.8 97.4 83.4 111.8 87C120.016 89.054 125.888 95.0144 132.388 101.612C142.977 112.36 155.232 124.8 182 124.8C210.8 124.8 228.8 110.4 236 81.6C225.2 96 212.6 101.4 198.2 97.8C189.984 95.746 184.112 89.7856 177.612 83.1876C167.023 72.4396 154.768 60 128 60ZM74 124.8C45.2 124.8 27.2 139.2 20 168C30.8 153.6 43.4 148.2 57.8 151.8C66.016 153.854 71.8884 159.814 78.3884 166.412C88.9772 177.16 101.232 189.6 128 189.6C156.8 189.6 174.8 175.2 182 146.4C171.2 160.8 158.6 166.2 144.2 162.6C135.984 160.546 130.112 154.586 123.612 147.988C113.023 137.24 100.768 124.8 74 124.8Z" fill="url(#paint0_linear)"/>
<path fill-rule="evenodd" clip-rule="evenodd" d="M128 52C99.2 52 81.2 66.4 74 95.2C84.8 80.8 97.4 75.4 111.8 79C120.016 81.054 125.888 87.0144 132.388 93.6124C142.977 104.36 155.232 116.8 182 116.8C210.8 116.8 228.8 102.4 236 73.6C225.2 88 212.6 93.4 198.2 89.8C189.984 87.746 184.112 81.7856 177.612 75.1876C167.023 64.4396 154.768 52 128 52ZM74 116.8C45.2 116.8 27.2 131.2 20 160C30.8 145.6 43.4 140.2 57.8 143.8C66.016 145.854 71.8884 151.814 78.3884 158.412C88.9772 169.16 101.232 181.6 128 181.6C156.8 181.6 174.8 167.2 182 138.4C171.2 152.8 158.6 158.2 144.2 154.6C135.984 152.546 130.112 146.586 123.612 139.988C113.023 129.24 100.768 116.8 74 116.8Z" fill="url(#paint1_linear)"/>
<defs>
<linearGradient id="paint0_linear" x1="14" y1="60" x2="236" y2="188" gradientUnits="userSpaceOnUse">
<stop stop-color="#313131"/>
<stop offset="1"/>
</linearGradient>
<linearGradient id="paint1_linear" x1="14" y1="52" x2="236" y2="180" gradientUnits="userSpaceOnUse">
<stop stop-color="white"/>
<stop offset="1" stop-color="#D8D8D8"/>
</linearGradient>
</defs>
</svg>
